<?xml version="1.0" standalone="no"?>
<!DOCTYPE svg PUBLIC "-//W3C//DTD SVG 20010904//EN"
 "http://www.w3.org/TR/2001/REC-SVG-20010904/DTD/svg10.dtd">
<svg version="1.0" xmlns="http://www.w3.org/2000/svg"
 width="1000.000000pt" height="826.000000pt" viewBox="0 0 1000.000000 826.000000"
 preserveAspectRatio="xMidYMid meet">

<g transform="translate(0.000000,826.000000) scale(0.100000,-0.100000)"
fill="#000000" stroke="none">
<path d="M4433 7692 c-93 -33 -154 -94 -189 -187 -18 -49 -19 -145 -19 -3485
0 -3285 1 -3437 18 -3487 10 -28 36 -72 59 -97 96 -110 226 -139 364 -81 52
22 129 100 155 158 l24 52 2 815 c1 448 5 834 8 857 8 56 54 116 117 153 45
25 63 30 124 30 111 0 196 -52 236 -147 8 -19 14 -132 18 -353 l5 -325 28 -58
c28 -57 72 -95 140 -125 46 -20 244 -15 292 7 61 28 105 70 131 126 l24 50 0
2414 c0 1880 -3 2423 -12 2455 -17 55 -100 140 -153 156 -22 7 -80 14 -130 17
-76 4 -99 2 -148 -17 -73 -27 -118 -66 -148 -128 -23 -46 -24 -56 -29 -382 -5
-322 -6 -336 -27 -370 -52 -83 -132 -129 -226 -130 -32 0 -73 6 -91 14 -47 20
-113 82 -139 130 l-22 41 3 805 c3 877 4 876 -53 962 -81 122 -231 177 -362
130z m832 -2561 c58 -26 101 -80 115 -143 8 -38 10 -306 8 -963 l-3 -910 -25
-45 c-38 -67 -96 -103 -174 -108 -36 -2 -81 1 -102 8 -50 17 -116 85 -132 136
-17 57 -18 1838 -1 1895 16 52 64 108 113 130 54 24 148 24 201 0z"/>
<path d="M3207 5550 c-63 -16 -112 -47 -160 -100 -83 -92 -77 17 -77 -1431 0
-1288 0 -1288 21 -1345 28 -74 76 -126 151 -164 51 -25 73 -30 133 -30 63 0
82 5 144 36 74 37 113 77 149 154 16 32 17 143 17 1345 l0 1310 -28 57 c-15
31 -44 71 -64 89 -76 66 -199 100 -286 79z"/>
<path d="M6887 4976 c-102 -28 -184 -115 -212 -223 -14 -53 -15 -155 -13 -765
l3 -703 26 -56 c55 -116 158 -183 284 -182 126 1 230 67 284 182 l26 56 0 730
0 730 -29 63 c-49 106 -141 169 -261 178 -34 2 -81 -2 -108 -10z"/>
<path d="M1865 4657 c-90 -30 -153 -83 -196 -167 -24 -45 -24 -47 -27 -449 -3
-361 -1 -410 14 -459 34 -107 112 -179 225 -208 109 -28 224 9 303 97 75 84
76 88 76 546 0 371 -1 407 -19 453 -28 72 -72 122 -142 160 -72 38 -166 49
-234 27z"/>
<path d="M7975 4293 c-67 -24 -109 -55 -143 -106 -40 -58 -52 -99 -52 -176 0
-262 329 -385 505 -189 74 82 94 195 55 300 -52 141 -224 221 -365 171z"/>
</g>
</svg>
